# Blender 4.0.2
# www.blender.org
mtllib toyhouse.mtl
o Cube
v 1.000000 1.000000 -1.000000
v 1.000000 -1.000000 -1.000000
v 1.000000 1.000000 1.000000
v 1.000000 -1.000000 1.000000
v -1.000000 1.000000 -1.000000
v -1.000000 -1.000000 -1.000000
v -1.000000 1.000000 1.000000
v -1.000000 -1.000000 1.000000
v 0.000000 2.346611 0.000000
vn -1.0000 -0.0000 -0.0000
vn -0.0000 -0.0000 1.0000
vn 1.0000 -0.0000 -0.0000
vn -0.0000 -1.0000 -0.0000
vn -0.0000 0.5962 -0.8028
vn -0.0000 -0.0000 -1.0000
vn -0.8028 0.5962 -0.0000
vn 0.8028 0.5962 -0.0000
vn -0.0000 0.5962 0.8028
vt 0.375000 0.000000
vt 0.625000 0.000000
vt 0.625000 0.250000
vt 0.375000 0.250000
vt 0.375000 0.750000
vt 0.625000 0.750000
vt 0.625000 1.000000
vt 0.375000 1.000000
vt 0.375000 0.500000
vt 0.625000 0.500000
vt 0.125000 0.500000
vt 0.125000 0.750000
vt 0.000000 0.000000
s 0
usemtl Material
f 8/1/1 7/2/1 5/3/1 6/4/1
f 4/5/2 3/6/2 7/7/2 8/8/2
f 2/9/3 1/10/3 3/6/3 4/5/3
f 6/11/4 2/9/4 4/5/4 8/12/4
f 1/10/5 5/3/5 9/13/5
f 6/4/6 5/3/6 1/10/6 2/9/6
f 9/13/7 5/3/7 7/2/7
f 3/6/8 1/10/8 9/13/8
f 7/2/9 3/6/9 9/13/9
